<?xml version="1.0" standalone="no"?>
<!DOCTYPE svg PUBLIC "-//W3C//DTD SVG 20010904//EN"
 "http://www.w3.org/TR/2001/REC-SVG-20010904/DTD/svg10.dtd">
<svg version="1.0" xmlns="http://www.w3.org/2000/svg"
 width="600.000000pt" height="456.000000pt" viewBox="0 0 600.000000 456.000000"
 preserveAspectRatio="xMidYMid meet">
<metadata>
</metadata>
<g transform="translate(0.000000,456.000000) scale(0.100000,-0.100000)"
fill="#0b47a9" stroke="none">
<path d="M1195 3929 c-65 -38 -96 -89 -97 -159 0 -94 58 -151 172 -169 126
-20 257 -72 324 -128 15 -13 49 -29 74 -36 40 -11 56 -24 125 -107 198 -240
360 -523 500 -875 58 -144 122 -346 133 -415 l6 -39 -63 -28 c-102 -43 -264
-128 -342 -180 -90 -59 -197 -164 -228 -223 -46 -89 -23 -221 45 -258 41 -22
-45 -24 1456 28 305 11 697 24 870 30 173 6 327 15 341 21 50 20 63 82 25 125
l-23 28 -924 -2 c-508 -1 -1069 -5 -1246 -9 -225 -4 -323 -3 -323 5 0 6 48 35
108 65 201 103 534 231 757 292 363 100 1040 205 1640 256 77 6 150 15 162 20
42 16 72 79 181 389 61 173 152 431 202 573 51 142 90 260 88 262 -1 2 -129
-1 -283 -7 -335 -11 -2553 -14 -2711 -4 l-110 8 -91 107 c-64 77 -92 119 -97
145 -17 92 -176 195 -401 261 -102 30 -239 42 -270 24z m1270 -731 c4 -3 -1
-44 -10 -90 -25 -128 -17 -118 -96 -118 -38 0 -69 3 -69 8 0 4 -25 52 -55 107
-30 54 -55 101 -55 103 0 7 278 -3 285 -10z m1699 3 c3 -5 -5 -49 -17 -98
l-24 -88 -116 -3 c-135 -4 -127 -13 -98 108 l18 75 89 6 c49 3 101 6 116 7 15
1 29 -2 32 -7z m356 2 c0 -5 -7 -30 -15 -58 -9 -27 -20 -67 -26 -87 l-10 -38
-120 0 c-110 0 -120 2 -115 18 2 9 12 46 21 82 9 36 19 71 21 78 2 9 36 12
124 12 66 0 120 -3 120 -7z m345 -14 c-4 -11 -17 -51 -29 -87 l-23 -67 -49 -7
c-93 -12 -184 -9 -184 6 0 11 26 106 45 164 3 9 37 12 125 12 118 0 121 -1
115 -21z m-2050 -11 c-3 -13 -12 -56 -20 -97 -8 -40 -18 -77 -21 -82 -8 -14
-234 -11 -234 3 0 6 7 54 17 105 l16 93 124 0 c123 0 123 0 118 -22z m332 0
c-3 -13 -13 -58 -22 -100 l-17 -78 -115 0 c-104 0 -114 2 -109 18 2 9 12 54
22 100 l17 82 115 0 c113 0 114 0 109 -22z m333 13 c0 -17 -38 -170 -45 -181
-4 -6 -51 -10 -116 -10 -100 0 -110 2 -105 18 3 9 12 49 21 87 9 39 18 76 20
83 5 15 225 18 225 3z m340 0 c0 -10 -27 -134 -36 -163 -5 -16 -20 -18 -123
-18 l-118 0 23 93 c12 50 23 93 23 95 2 7 231 0 231 -7z m615 -292 c-9 -29
-65 -223 -65 -226 0 -2 -52 -3 -116 -3 -105 0 -115 2 -110 18 3 9 14 54 26 99
36 145 22 133 155 133 114 0 116 0 110 -21z m305 -96 c-35 -110 -40 -118 -66
-124 -42 -9 -194 -10 -194 -1 0 4 14 60 32 125 l32 117 117 0 117 0 -38 -117z
m-990 95 c0 -7 -12 -64 -27 -125 l-27 -113 -119 0 c-91 0 -118 3 -114 13 2 6
14 57 27 112 12 55 27 106 32 113 7 8 44 12 119 12 80 0 109 -3 109 -12z m339
-5 c0 -10 -13 -65 -28 -123 l-28 -105 -117 -3 c-110 -3 -117 -2 -112 15 3 10
15 59 26 108 12 50 23 98 26 108 5 15 19 17 120 17 102 0 114 -2 113 -17z
m-1009 -8 c0 -15 -36 -183 -46 -217 -5 -16 -19 -18 -115 -18 -60 0 -109 3
-109 7 0 37 47 221 59 231 9 8 49 12 113 12 81 0 98 -3 98 -15z m330 3 c0 -7
-13 -62 -28 -123 l-28 -110 -107 -3 c-90 -2 -107 0 -107 12 0 13 11 63 45 214
5 21 10 22 115 22 82 0 110 -3 110 -12z m-661 -15 c0 -10 -10 -65 -23 -123
l-22 -105 -121 -3 -120 -3 25 126 25 125 118 0 c107 0 119 -2 118 -17z m1591
-305 c0 -8 -69 -231 -72 -234 -9 -8 -218 -16 -218 -8 0 15 57 222 65 233 5 9
225 17 225 9z m320 -5 c0 -5 -14 -53 -31 -109 l-31 -101 -106 -7 c-57 -4 -106
-5 -108 -3 -2 1 11 53 28 115 l32 112 108 0 c59 0 108 -3 108 -7z m-990 -10
c0 -20 -64 -269 -71 -279 -8 -10 -226 -41 -233 -33 -4 3 57 272 69 307 3 9 36
12 120 12 63 0 115 -3 115 -7z m330 -4 c0 -12 -59 -242 -63 -245 -5 -3 -221
-24 -223 -21 -2 2 52 241 61 265 6 16 225 17 225 1z m-994 -16 c-3 -10 -23
-99 -45 -197 -23 -98 -42 -181 -45 -183 -4 -4 -220 -62 -223 -60 -1 1 19 102
45 224 l45 222 36 4 c20 2 71 4 114 5 70 2 78 0 73 -15z m320 0 c-2 -10 -19
-81 -36 -158 -18 -77 -38 -145 -44 -151 -11 -12 -204 -50 -211 -42 -2 2 9 60
24 128 16 69 34 151 41 183 l11 57 110 0 c100 0 110 -2 105 -17z m-649 -15
c-3 -13 -20 -93 -37 -178 -18 -85 -36 -159 -41 -165 -6 -5 -9 -3 -9 7 0 13
-66 245 -97 341 -5 15 4 17 92 17 96 0 97 0 92 -22z"/>
<path d="M1465 3353 c-81 -6 -441 -34 -480 -38 -227 -26 -442 -61 -390 -64 11
-1 88 -8 171 -16 216 -21 644 -38 749 -30 l90 6 -3 75 -4 75 -46 -3 c-26 -2
-65 -4 -87 -5z"/>
<path d="M1580 3093 c-25 -1 -130 -7 -235 -13 -249 -14 -499 -35 -715 -61
-160 -19 -214 -29 -164 -29 10 0 109 -7 219 -16 111 -8 405 -18 658 -21 l457
-6 0 77 0 76 -87 -2 c-49 -1 -108 -3 -133 -5z"/>
<path d="M1600 2819 c-260 -13 -649 -38 -841 -55 -156 -13 -382 -40 -369 -43
51 -13 619 -33 1043 -38 l547 -6 0 77 0 76 -107 -1 c-60 -1 -182 -6 -273 -10z"/>
<path d="M3888 1246 c-114 -31 -198 -145 -198 -269 0 -140 88 -236 215 -237
83 0 122 17 185 78 48 47 61 68 75 116 57 198 -90 364 -277 312z m113 -175
c48 -48 32 -133 -31 -166 -42 -22 -66 -19 -102 14 -27 24 -33 36 -32 69 3 97
101 146 165 83z"/>
<path d="M2357 1226 c-84 -23 -162 -104 -188 -194 -16 -59 -6 -152 23 -204 12
-23 42 -56 66 -72 60 -42 159 -49 228 -15 158 76 215 288 112 414 -57 69 -151
97 -241 71z m117 -172 c66 -67 -3 -199 -93 -179 -60 13 -89 74 -65 134 28 70
109 93 158 45z"/>
</g>
</svg>
